<svg width="6419" height="742" viewBox="0 0 6419 742" fill="none" xmlns="http://www.w3.org/2000/svg">
<path d="M262 726V730H1.49012e-07V726C1.49012e-07 722 31 635 31 559V181C31 105 1.49012e-07 18 1.49012e-07 14V9.99997H262V14C262 18 231 105 231 181V346H452V181C452 105 421 18 421 14V9.99997H683V14C683 18 652 105 652 181V559C652 635 683 722 683 726V730H421V726C421 722 452 635 452 559V396H231V559C231 635 262 722 262 726ZM1089.05 741C889.047 741 736.047 595 736.047 370C736.047 145 889.047 -1.90735e-05 1089.05 -1.90735e-05C1288.05 -1.90735e-05 1442.05 146 1442.05 370C1442.05 595 1288.05 741 1089.05 741ZM1089.05 695C1185.05 695 1219.05 491 1219.05 368C1219.05 246 1185.05 46 1089.05 46C993.047 46 959.047 250 959.047 372C959.047 495 993.047 695 1089.05 695ZM1495.12 14V9.99997H1810.12C2008.12 9.99997 2163.12 150 2163.12 369C2163.12 594 2008.12 730 1810.12 730H1495.12V726C1495.12 722 1526.12 635 1526.12 559V181C1526.12 105 1495.12 18 1495.12 14ZM1749.12 55H1726.12V684H1749.12C1895.12 684 1940.12 522 1940.12 369C1940.12 222 1895.12 55 1749.12 55ZM2548.7 742C2406.7 742 2246.7 669 2246.7 426V181C2246.7 105 2215.7 18 2215.7 14V9.99997H2477.7V14C2477.7 18 2446.7 105 2446.7 181V450C2446.7 597 2506.7 660 2602.7 660C2698.7 660 2762.7 596 2762.7 457V266C2762.7 152 2700.7 22 2700.7 16V9.99997H2875.7V16C2875.7 22 2813.7 152 2813.7 266V457C2813.7 661 2700.7 742 2548.7 742ZM2932.62 14V9.99997H3291.62C3433.62 9.99997 3530.62 93 3530.62 201C3530.62 295 3455.62 341 3379.62 364C3471.62 384 3564.62 433 3564.62 544C3564.62 671 3443.62 730 3311.62 730H2932.62V726C2932.62 722 2963.62 635 2963.62 559V181C2963.62 105 2932.62 18 2932.62 14ZM3220.62 344C3290.62 344 3322.62 258 3322.62 201C3322.62 143 3290.62 59 3220.62 59H3163.62V344H3220.62ZM3240.62 681C3320.62 681 3357.62 628 3357.62 541C3357.62 468 3330.62 392 3240.62 392H3163.62V681H3240.62ZM3611.33 14V9.99997H3970.33C4112.33 9.99997 4209.33 93 4209.33 201C4209.33 295 4134.33 341 4058.33 364C4150.33 384 4243.33 433 4243.33 544C4243.33 671 4122.33 730 3990.33 730H3611.33V726C3611.33 722 3642.33 635 3642.33 559V181C3642.33 105 3611.33 18 3611.33 14ZM3899.33 344C3969.33 344 4001.33 258 4001.33 201C4001.33 143 3969.33 59 3899.33 59H3842.33V344H3899.33ZM3919.33 681C3999.33 681 4036.33 628 4036.33 541C4036.33 468 4009.33 392 3919.33 392H3842.33V681H3919.33ZM4247.27 726C4269.27 685 4313.27 593 4351.27 486L4467.27 157C4490.27 92 4448.27 16.9999 4448.27 14V9.99997H4683.27L4885.27 552C4914.27 630 4943.27 685 4972.27 726V730H4663.27V726C4663.27 721 4700.27 630 4671.27 552L4647.27 487H4405.27L4394.27 518C4362.27 611 4420.27 720 4420.27 725V730H4247.27V726ZM4423.27 437H4628.27L4523.27 153L4423.27 437ZM5506.84 730L5116.84 159V473C5116.84 587 5178.84 718 5178.84 724V730H5003.84V724C5003.84 718 5065.84 587 5065.84 473V181C5065.84 105 5019.84 18 5019.84 14V9.99997H5259.84L5580.84 485V266C5580.84 152 5518.84 22 5518.84 16V9.99997H5693.84V16C5693.84 22 5631.84 152 5631.84 266V730H5506.84ZM6087.21 741C5882.21 741 5729.21 590 5729.21 370C5729.21 166 5887.21 -1.90735e-05 6106.21 -1.90735e-05C6182.21 -1.90735e-05 6278.21 20 6373.21 56V271H6364.21C6341.21 239 6232.21 53.9999 6115.21 52C6015.21 50 5957.21 180 5957.21 370C5957.21 559 6015.21 688 6125.21 690C6151.21 690 6177.21 684 6202.21 674V528C6202.21 452 6125.21 365 6125.21 361V357H6418.21V361C6418.21 365 6402.21 452 6402.21 528V662C6345.21 692 6210.21 741 6087.21 741Z" fill="#2E2A25"/>
</svg>
